<svg width="18" height="18" viewBox="0 0 100 100" fill="none" xmlns="http://www.w3.org/2000/svg">
<path d="M7.99203 16.7344C7.79132 16.5281 7.68622 16.2656 7.67673 15.9469C7.66797 15.6281 7.76395 15.3656 7.96466 15.1594L13.3292 9.64687H1.0948C0.784606 9.64687 0.524409 9.53887 0.314207 9.32287C0.104736 9.10762 0 8.84062 0 8.52187C0 8.20312 0.104736 7.93575 0.314207 7.71975C0.524409 7.5045 0.784606 7.39687 1.0948 7.39687H13.3292L7.96466 1.88437C7.76395 1.67812 7.66797 1.41562 7.67673 1.09687C7.68622 0.778125 7.79132 0.515625 7.99203 0.309375C8.19274 0.103125 8.4482 0 8.75839 0C9.06858 0 9.32403 0.103125 9.52475 0.309375L16.7504 7.73438C16.8599 7.82813 16.9376 7.94513 16.9836 8.08538C17.0289 8.22638 17.0515 8.37187 17.0515 8.52187C17.0515 8.67187 17.0289 8.8125 16.9836 8.94375C16.9376 9.075 16.8599 9.19687 16.7504 9.30937L9.52475 16.7344C9.32403 16.9406 9.06858 17.0438 8.75839 17.0438C8.4482 17.0438 8.19274 16.9406 7.99203 16.7344Z" fill="#00983A"/>
</svg>
