<svg width="25" height="17" viewBox="0 0 25 17" fill="none" xmlns="http://www.w3.org/2000/svg">
<path d="M23.7153 7.5H1.93922C1.22958 7.5 0.654297 7.92533 0.654297 8.45V8.55C0.654297 9.07467 1.22958 9.5 1.93922 9.5H23.7153C24.4249 9.5 25.0002 9.07467 25.0002 8.55V8.45C25.0002 7.92533 24.4249 7.5 23.7153 7.5Z" fill="#363352"/>
<path d="M23.7153 15H1.93922C1.22958 15 0.654297 15.4253 0.654297 15.95V16.05C0.654297 16.5747 1.22958 17 1.93922 17H23.7153C24.4249 17 25.0002 16.5747 25.0002 16.05V15.95C25.0002 15.4253 24.4249 15 23.7153 15Z" fill="#363352"/>
<path d="M23.7153 0H1.93922C1.22958 0 0.654297 0.425329 0.654297 0.95V1.05C0.654297 1.57467 1.22958 2 1.93922 2H23.7153C24.4249 2 25.0002 1.57467 25.0002 1.05V0.95C25.0002 0.425329 24.4249 0 23.7153 0Z" fill="#363352"/>
</svg>
