<svg width="20" height="20" viewBox="0 0 20 20" fill="none" xmlns="http://www.w3.org/2000/svg">
<path d="M19.2655 17.8141L14.8727 13.2473C15.8924 11.8609 16.52 10.1484 16.52 8.27271C16.52 3.78744 12.99 0.117676 8.67567 0.117676C4.36131 0.117676 0.75293 3.78744 0.75293 8.27271C0.75293 12.758 4.28286 16.4277 8.59723 16.4277C10.4014 16.4277 12.1272 15.7753 13.4607 14.6336L17.8535 19.2004C18.0104 19.3635 18.3242 19.5266 18.5595 19.5266C18.7948 19.5266 19.0301 19.4451 19.2655 19.2004C19.6577 18.8742 19.6577 18.2218 19.2655 17.8141ZM2.714 8.27271C2.714 4.92914 5.38107 2.15643 8.59723 2.15643C11.8134 2.15643 14.4805 4.92914 14.4805 8.27271C14.4805 11.6163 11.8134 14.389 8.59723 14.389C5.38107 14.389 2.714 11.6978 2.714 8.27271Z" fill="#363352"/>
</svg>
